<?xml version="1.0" standalone="no"?>
<!DOCTYPE svg PUBLIC "-//W3C//DTD SVG 20010904//EN"
 "http://www.w3.org/TR/2001/REC-SVG-20010904/DTD/svg10.dtd">
<svg version="1.0" xmlns="http://www.w3.org/2000/svg"
 width="570.000000pt" height="529.000000pt" viewBox="0 0 570.000000 529.000000"
 preserveAspectRatio="xMidYMid meet">

<g transform="translate(0.000000,529.000000) scale(0.100000,-0.100000)"
fill="#000000" stroke="none">
<path d="M2430 5105 c0 -130 4 -191 12 -205 10 -16 10 -24 0 -40 -9 -15 -12
-197 -12 -805 l0 -785 -709 0 c-614 0 -710 -2 -714 -15 -5 -13 -10 -13 -41 0
-29 12 -102 15 -399 15 l-364 0 -7 -737 c-3 -406 -9 -769 -12 -806 -6 -62 -8
-68 -28 -65 -20 3 -21 10 -28 138 -4 74 -8 170 -9 213 -1 60 -5 80 -17 84 -23
9 -40 -23 -36 -68 3 -35 -1 -45 -26 -71 l-30 -30 25 -30 c14 -16 25 -33 25
-38 0 -13 -18 -51 -39 -85 -17 -26 -20 -50 -20 -172 -1 -135 0 -143 18 -143
16 0 21 -10 26 -55 l7 -55 1081 0 c961 0 1082 2 1098 15 9 9 54 35 100 58 82
41 84 43 89 82 l5 40 70 8 c39 4 80 8 93 9 19 0 22 6 22 44 0 48 18 58 51 28
24 -22 99 -31 100 -13 0 8 2 34 4 59 2 25 6 124 9 220 4 96 9 200 12 231 l6
57 -41 0 -41 1 14 -34 c15 -35 7 -97 -14 -110 -5 -3 -14 -33 -21 -66 -13 -66
-33 -94 -23 -32 9 62 -7 90 -58 97 -108 17 -124 15 -160 -15 -36 -31 -57 -36
-76 -17 -7 7 -5 -2 4 -20 25 -51 8 -51 -40 1 -62 68 -105 60 -150 -27 l-27
-51 24 -20 c13 -11 27 -28 30 -38 9 -25 -1 -41 -18 -27 -20 17 -24 -7 -12 -78
11 -68 8 -79 -19 -64 -15 8 -24 4 -46 -19 -16 -16 -28 -40 -28 -54 0 -15 -6
-25 -15 -25 -7 0 -19 -8 -24 -17 -6 -10 -11 -14 -11 -9 0 5 -7 3 -15 -4 -11
-9 -22 -9 -46 -1 -18 6 -42 11 -54 11 -25 0 -65 -39 -65 -63 0 -23 -31 -37
-79 -37 -39 0 -41 1 -41 32 0 17 3 28 7 25 10 -10 53 34 53 54 0 9 -7 34 -16
55 -19 45 -13 113 10 126 9 5 16 14 16 20 0 7 12 29 27 51 l26 38 -25 26 c-34
33 -107 46 -161 28 -35 -12 -37 -11 -41 9 -13 62 -16 181 -6 212 10 29 9 37
-7 58 l-19 24 -52 -18 c-29 -10 -63 -16 -75 -13 -26 6 -104 5 -129 -3 -10 -3
-18 -11 -18 -18 0 -15 -43 -26 -97 -26 -32 0 -93 26 -93 40 0 3 -21 5 -47 4
-27 0 -55 3 -64 9 -9 6 -24 7 -32 4 -27 -10 -5 -50 31 -58 16 -3 46 -22 66
-41 20 -20 50 -38 66 -42 17 -3 30 -12 30 -20 0 -20 -74 -31 -109 -17 -23 10
-27 17 -23 41 3 23 0 30 -12 30 -10 0 -13 -6 -10 -15 8 -21 -3 -19 -37 6 -31
22 -62 20 -53 -4 7 -19 -42 -50 -66 -42 -11 4 -20 11 -20 16 0 20 -2 24 -16
32 -8 5 -26 26 -40 48 -13 22 -29 37 -35 33 -19 -11 -96 6 -121 27 -12 12 -28
24 -33 27 -6 4 -18 19 -28 34 -10 16 -26 28 -37 28 -22 0 -35 16 -20 25 5 3
10 11 10 17 0 7 -6 6 -15 -2 -12 -10 -15 -10 -15 2 0 7 20 31 45 51 35 30 45
34 45 21 0 -10 -10 -28 -22 -41 -12 -13 -17 -23 -11 -23 25 0 45 14 54 37 14
38 35 38 72 -1 19 -20 40 -36 47 -36 7 0 27 -11 44 -23 57 -44 140 -50 276
-21 111 24 162 44 192 76 19 21 43 32 80 39 83 15 92 15 96 -2 3 -15 -35 -30
-83 -34 -5 0 -16 -4 -23 -8 -7 -5 -22 -5 -33 -2 -14 5 -28 0 -45 -16 -13 -12
-24 -26 -24 -30 0 -15 85 -15 111 0 28 16 59 10 59 -11 0 -14 -135 -62 -148
-54 -18 11 -98 15 -112 6 -13 -9 -13 -11 0 -20 8 -5 23 -10 34 -10 10 0 34 -9
53 -21 36 -23 74 -20 104 7 22 20 154 53 211 54 l47 0 -25 60 c-44 108 -27
179 62 258 27 23 59 52 71 64 13 12 33 23 45 24 23 1 33 5 112 38 21 9 47 16
58 16 31 0 68 30 68 56 0 15 6 24 15 24 8 0 15 4 15 8 0 6 29 8 60 3 3 -1 14
-14 23 -31 19 -32 44 -39 53 -15 4 8 12 15 19 15 7 0 15 7 19 15 3 9 18 15 36
15 25 0 30 -4 30 -23 0 -24 26 -37 100 -52 19 -4 47 -14 62 -21 27 -14 28 -13
66 43 78 115 123 156 229 207 54 26 118 55 143 63 25 8 62 23 82 33 43 21 48
18 48 -26 0 -24 8 -39 30 -57 17 -14 30 -34 30 -44 1 -17 2 -17 15 1 14 19 15
19 15 -8 0 -35 37 -71 89 -87 52 -15 169 5 252 45 69 32 178 126 202 173 17
32 17 38 3 74 -22 53 -20 59 12 59 43 0 70 -11 75 -29 5 -21 71 -43 86 -28 7
7 17 2 32 -16 11 -15 33 -34 49 -42 l28 -14 6 59 c4 33 11 60 16 60 13 0 13
36 0 60 -14 27 6 36 30 15 17 -15 22 -16 37 -4 14 12 16 12 8 0 -14 -24 -14
-71 1 -86 19 -18 18 -25 -5 -25 -30 0 -15 -47 19 -58 22 -8 28 -18 34 -50 6
-38 10 -43 76 -77 38 -21 102 -59 142 -85 71 -47 73 -48 76 -25 2 13 -6 42
-18 64 -11 23 -23 62 -25 88 l-5 48 13 -50 c8 -27 23 -68 35 -90 12 -22 22
-58 22 -79 0 -31 3 -37 12 -28 18 18 55 15 63 -5 4 -12 -1 -23 -14 -34 -19
-15 -19 -17 -1 -44 l18 -27 5 28 c19 101 18 142 -6 200 -38 93 -63 209 -47
219 5 3 12 -11 15 -32 15 -89 26 -134 45 -185 16 -42 20 -77 20 -165 0 -103 2
-116 30 -175 16 -34 30 -69 30 -75 0 -7 6 -13 13 -13 32 1 167 54 204 81 24
16 64 39 90 51 49 21 88 48 157 105 64 54 86 43 86 -42 0 -24 4 -55 9 -68 11
-29 -22 -176 -44 -193 -7 -5 -17 -23 -21 -40 -4 -16 -14 -39 -22 -52 -8 -12
-12 -22 -8 -22 16 0 -63 -68 -86 -73 -19 -5 -25 -12 -22 -22 4 -9 0 -15 -10
-15 -9 0 -15 6 -13 13 1 7 -12 13 -36 15 -35 3 -38 1 -32 -17 5 -16 1 -20 -22
-24 -15 -2 76 -5 204 -6 l232 -1 3 88 c8 230 -3 1783 -12 1777 -6 -3 -10 -17
-10 -29 0 -30 -21 -48 -40 -36 -51 32 -276 -34 -367 -107 -53 -43 -57 -28 -5
19 47 43 179 95 279 110 75 12 80 16 63 48 -7 13 -7 21 0 25 17 11 11 44 -11
57 -27 17 -53 69 -96 192 -45 132 -50 152 -32 140 8 -4 58 -7 111 -6 92 3 98
2 98 -17 0 -11 5 -23 10 -26 7 -4 10 142 10 429 l0 436 -242 0 c-230 0 -241
-1 -225 -17 71 -75 80 -93 93 -181 7 -48 13 -108 14 -134 0 -36 4 -48 15 -48
8 0 15 -4 15 -9 0 -5 -7 -14 -15 -21 -8 -7 -15 -25 -15 -41 0 -27 -2 -29 -42
-29 -24 0 -59 -4 -78 -9 -19 -5 -69 -14 -110 -21 -41 -6 -106 -20 -145 -30
-63 -17 -110 -24 -141 -21 -21 2 -27 52 -8 66 17 12 17 14 0 31 -17 16 -17 19
-2 29 18 14 21 55 5 105 -11 37 -19 84 -22 137 -2 21 -12 39 -30 53 -23 18
-27 29 -27 71 0 36 4 49 14 49 8 0 18 5 21 10 4 6 -20 10 -64 10 -67 0 -70 -1
-64 -22 13 -58 11 -63 -31 -60 -34 3 -38 1 -33 -17 3 -13 -1 -21 -12 -24 -9
-3 9 -5 39 -6 l55 -2 -49 -25 c-27 -14 -79 -31 -115 -39 -36 -8 -84 -20 -106
-27 -22 -7 -58 -12 -80 -10 l-40 3 25 20 25 20 -23 -6 c-22 -6 -23 -5 -12 16
13 23 15 23 -34 3 -9 -3 -17 2 -20 14 -11 33 -33 47 -52 31 -15 -12 -15 -10 0
26 9 22 25 47 36 55 11 8 30 23 42 32 22 17 19 17 -92 15 l-115 -2 -3 -30 c-5
-45 -19 -55 -76 -55 -28 -1 -71 -5 -96 -10 -51 -9 -70 0 -70 36 0 24 -14 32
-25 14 -3 -5 -15 -10 -25 -10 -16 0 -18 -5 -14 -28 5 -22 0 -36 -19 -56 -25
-26 -45 -82 -34 -93 3 -2 15 5 27 17 19 19 23 20 33 6 7 -8 32 -16 57 -18 43
-3 45 -2 42 23 -2 20 4 32 25 47 24 16 42 19 117 17 93 -3 106 -9 106 -52 0
-27 -33 -47 -66 -39 -14 4 -24 2 -24 -4 0 -5 13 -10 28 -10 16 0 37 -7 48 -15
27 -21 29 -20 50 30 17 43 44 61 44 31 0 -8 6 -16 12 -18 10 -4 10 -10 0 -32
-17 -37 -15 -66 6 -89 10 -12 17 -35 17 -60 0 -40 1 -41 34 -41 29 -1 36 -5
42 -29 8 -29 9 -28 -58 -52 -7 -2 -13 -16 -13 -30 0 -43 41 -29 60 19 12 32
26 26 32 -14 2 -14 9 -24 15 -23 12 3 33 -48 33 -79 0 -14 5 -18 19 -13 10 3
28 -2 41 -13 19 -15 21 -22 12 -39 -8 -15 -8 -23 1 -32 9 -10 8 -15 -5 -25
-10 -7 -18 -18 -18 -25 0 -16 -80 -71 -105 -71 -28 0 -45 -18 -45 -50 0 -15
-13 -45 -28 -66 -32 -45 -66 -141 -68 -197 -4 -84 -26 -89 -48 -13 -12 41 -26
62 -56 88 -23 18 -45 33 -50 33 -5 0 -15 7 -22 16 -18 23 -58 34 -58 17 0 -8
-4 -7 -11 4 -5 10 -20 18 -32 18 -84 2 -148 8 -153 13 -3 3 -16 2 -29 -3 -13
-5 -25 -6 -28 -4 -3 3 -14 0 -25 -7 -16 -10 -23 -10 -35 0 -10 8 -17 9 -22 1
-3 -5 -19 -10 -34 -10 -15 0 -32 -5 -39 -12 -8 -8 -15 -9 -23 -1 -13 13 73 43
123 43 29 0 85 5 113 10 6 1 -8 6 -29 10 -25 5 -64 2 -105 -7 -137 -29 -129
-30 -129 11 0 36 10 46 24 25 5 -8 9 -8 14 1 13 21 0 46 -31 57 l-29 11 0 155
c0 85 -3 187 -6 228 -6 65 -4 77 14 99 26 33 36 21 37 -44 0 -30 6 -60 14 -70
12 -14 12 -21 1 -41 -7 -13 -10 -31 -7 -39 7 -17 52 -22 62 -6 3 5 3 61 -1
125 -7 113 -7 115 -31 115 l-24 0 21 30 21 29 -67 3 c-64 3 -68 4 -77 31 -7
22 -5 32 8 47 9 10 14 23 11 28 -6 10 -14 12 -141 37 -104 20 -105 20 -105 49
0 46 26 59 99 52 105 -11 151 -26 163 -52 8 -18 52 -44 74 -44 2 0 4 34 4 75
l0 75 -295 0 -295 0 0 -185z m2460 -76 c0 -12 -29 -24 -37 -16 -3 4 -3 13 0
21 6 16 37 11 37 -5z m-20 -80 c0 -6 -4 -7 -10 -4 -5 3 -10 11 -10 16 0 6 5 7
10 4 6 -3 10 -11 10 -16z m-840 -129 c0 -5 -4 -10 -10 -10 -5 0 -10 5 -10 10
0 6 5 10 10 10 6 0 10 -4 10 -10z m925 -20 c3 -5 -7 -12 -22 -16 -47 -10 -54
-13 -49 -23 3 -4 20 -11 37 -15 45 -9 34 -36 -23 -55 -25 -9 -55 -24 -66 -34
-20 -18 -21 -18 -31 1 -9 16 -18 19 -56 15 -40 -5 -45 -3 -45 14 0 26 25 47
46 39 17 -7 70 19 95 47 9 9 25 17 35 17 11 0 26 5 34 10 19 12 37 13 45 0z
m-864 -90 c-21 -18 -61 -28 -61 -15 0 8 54 34 70 34 10 0 8 -6 -9 -19z m1039
-20 c0 -15 -29 -19 -40 -5 -8 10 -8 14 2 18 16 5 38 -2 38 -13z m-740 -21 c0
-29 -55 -145 -138 -287 -100 -174 -128 -300 -101 -446 7 -38 7 -62 1 -68 -13
-13 -31 71 -36 164 -3 60 -9 77 -49 141 -57 91 -89 164 -76 172 5 4 18 -15 30
-42 23 -54 90 -163 101 -163 4 0 12 25 18 56 l12 56 -36 37 c-50 51 -45 64 5
16 23 -22 43 -35 46 -29 2 6 28 53 58 105 84 143 133 241 140 282 7 38 25 42
25 6z m735 -89 c3 -5 -3 -10 -14 -10 -12 0 -21 5 -21 10 0 6 6 10 14 10 8 0
18 -4 21 -10z m-701 -162 c-9 -18 -29 -51 -44 -73 -15 -22 -45 -74 -66 -115
l-39 -75 1 -137 c0 -76 -3 -138 -6 -138 -8 0 -20 113 -20 192 0 65 25 139 72
215 18 29 51 81 73 117 40 66 61 75 29 14z m-210 -304 c27 -26 12 -58 -25 -52
-27 3 -37 32 -19 53 16 19 25 19 44 -1z m-1633 -71 c8 -21 6 -36 -7 -65 -9
-21 -21 -35 -25 -32 -10 6 -12 108 -2 117 13 13 24 7 34 -20z m1758 -115 c11
-28 6 -38 -20 -38 -13 0 -19 7 -19 23 0 42 25 51 39 15z m240 0 c7 -19 4 -24
-17 -30 -14 -4 -28 -5 -31 -3 -2 3 0 5 6 5 6 0 9 9 6 20 -3 11 -10 20 -15 20
-5 0 -7 -4 -4 -8 2 -4 1 -14 -5 -22 -6 -11 -9 -8 -9 13 0 23 4 27 30 27 23 0
33 -6 39 -22z m601 -25 c0 -5 -19 -9 -43 -10 -44 -3 -235 -60 -204 -62 23 -1
22 -22 -4 -55 -26 -33 -42 -33 -67 -1 l-20 25 -31 -26 c-37 -31 -42 -14 -6 22
31 31 85 55 195 88 82 24 180 34 180 19z m-2104 -42 c-3 -5 -15 -7 -26 -4 -28
7 -25 13 6 13 14 0 23 -4 20 -9z m64 -50 c0 -55 4 -60 70 -78 57 -15 60 -15
60 0 0 32 148 44 167 13 16 -25 10 -91 -10 -113 -26 -29 -18 -29 42 2 34 18
57 24 75 19 22 -5 26 -3 26 17 2 100 19 167 40 154 5 -3 11 -18 15 -34 7 -33
45 -76 87 -97 30 -16 35 -24 15 -24 -26 0 -96 54 -108 83 -12 28 -13 29 -20 8
-16 -41 26 -108 81 -131 28 -12 28 -12 9 -31 -10 -10 -19 -29 -19 -42 0 -12
-6 -31 -13 -42 -16 -24 -14 -111 3 -172 13 -45 7 -79 -11 -67 -6 3 -34 9 -62
13 -41 5 -54 11 -64 31 -11 21 -10 27 4 38 9 6 12 12 5 12 -7 0 -12 12 -12 27
0 24 -2 25 -15 13 -11 -12 -12 -24 -5 -55 8 -37 14 -140 11 -192 -3 -53 -85
-97 -134 -71 -22 12 -93 13 -131 3 -21 -6 -37 -3 -60 11 -17 10 -49 19 -70 19
-43 0 -62 23 -27 32 23 6 27 18 11 28 -6 4 -8 11 -4 16 3 5 10 7 15 4 17 -11
9 9 -13 32 -17 18 -19 26 -10 32 18 11 5 39 -36 81 -22 22 -36 31 -39 23 -3
-9 -14 -11 -31 -7 -19 5 -24 3 -17 -4 6 -5 19 -12 30 -14 38 -6 21 -31 -30
-46 -96 -26 -94 -26 -88 -3 3 12 1 21 -5 21 -7 0 -8 12 -2 33 4 17 13 65 21
105 11 64 15 73 32 70 11 -2 28 -16 36 -31 15 -27 107 -81 122 -72 4 3 10 22
14 42 4 21 14 46 22 56 15 16 14 17 -14 17 -37 0 -54 29 -23 37 28 7 25 19 -7
32 -33 13 -66 15 -111 6 -31 -6 -33 -5 -23 13 7 12 25 21 52 25 23 3 51 14 62
25 17 18 18 24 8 54 -11 29 -10 34 9 47 11 7 20 18 20 23 0 12 33 57 43 58 4
0 7 -22 7 -49z m2000 45 c0 -2 -7 -7 -16 -10 -8 -3 -12 -2 -9 4 6 10 25 14 25
6z m-900 -216 c0 -5 8 -10 19 -10 28 0 32 -35 6 -69 -12 -17 -26 -27 -30 -23
-4 4 -5 -3 -2 -16 9 -36 -29 -44 -205 -40 -115 2 -161 -1 -170 -10 -6 -6 -21
-12 -32 -12 -24 0 -79 -39 -57 -40 21 0 -19 -29 -41 -30 -14 0 -16 6 -11 33 8
42 18 54 53 62 16 3 34 13 41 21 6 8 24 14 39 14 25 0 29 5 35 40 4 22 10 40
14 40 4 0 17 -20 29 -45 l22 -45 95 0 c96 0 175 20 175 44 0 24 -18 38 -40 31
-30 -10 -92 3 -84 17 5 7 -1 9 -19 4 -29 -7 -44 8 -28 28 13 16 191 22 191 6z
m-1385 -30 c3 -5 -1 -10 -10 -10 -9 0 -13 5 -10 10 3 6 8 10 10 10 2 0 7 -4
10 -10z m2145 -41 c0 -3 -24 -29 -53 -56 -61 -58 -137 -87 -208 -78 -77 10
-78 21 -3 45 112 37 169 65 195 97 23 28 25 29 46 14 12 -9 23 -19 23 -22z
m-673 5 c-3 -3 -12 -4 -19 -1 -8 3 -5 6 6 6 11 1 17 -2 13 -5z m172 -130 c2
-2 -12 -4 -32 -4 -20 0 -37 4 -37 10 0 8 58 3 69 -6z m81 -4 c0 -6 -11 -8 -27
-4 -40 10 -41 14 -5 14 18 0 32 -5 32 -10z m-775 -78 c0 -18 -20 -15 -23 4 -3
10 1 15 10 12 7 -3 13 -10 13 -16z m185 4 c0 -16 -14 -36 -26 -36 -16 0 -16 2
-8 24 5 14 34 24 34 12z m-3455 -178 c-4 -24 -14 -49 -22 -55 -14 -10 -21 -6
-44 25 -16 20 -29 40 -29 45 0 4 18 7 40 7 22 0 40 5 40 10 0 6 5 10 11 10 7
0 8 -14 4 -42z m2219 -70 c-8 -28 -12 -33 -20 -25 -9 8 6 47 17 47 6 0 7 -10
3 -22z m-2264 -24 c0 -12 -4 -13 -21 -3 -17 9 -19 13 -8 19 16 11 29 4 29 -16z
m2370 10 c0 -8 -5 -12 -10 -9 -6 4 -8 11 -5 16 9 14 15 11 15 -7z m1417 -31
c-3 -10 -5 -2 -5 17 0 19 2 27 5 18 2 -10 2 -26 0 -35z m78 17 c0 -29 -32 -41
-41 -16 -9 24 4 48 23 44 12 -2 18 -12 18 -28z m-1541 4 c4 -10 1 -14 -6 -12
-15 5 -23 28 -10 28 5 0 13 -7 16 -16z m-2257 -318 c3 -234 2 -250 -17 -276
-11 -15 -20 -35 -20 -43 0 -9 -11 -29 -25 -45 -22 -27 -25 -41 -31 -148 -4
-81 -12 -132 -24 -159 -10 -22 -23 -60 -29 -85 -7 -25 -20 -55 -30 -67 -21
-25 -52 -33 -58 -15 -3 6 0 12 6 12 20 0 11 38 -16 70 -23 28 -25 35 -14 52
10 16 10 23 -3 37 -19 21 -21 96 -3 131 7 14 22 29 35 35 27 12 27 15 1 59
-12 21 -18 43 -14 55 3 11 0 29 -7 40 -18 29 0 43 62 49 28 2 52 7 54 11 8 14
18 75 10 68 -4 -4 -19 4 -33 17 -14 13 -35 26 -46 28 -22 4 -30 26 -16 48 7 9
33 16 79 18 l70 4 -16 39 c-8 21 -19 39 -24 39 -4 0 -8 5 -8 12 0 7 -12 24
-27 40 -29 31 -27 33 50 43 26 3 47 9 48 13 7 55 6 110 -1 122 -6 9 -24 14
-50 14 -32 -1 -40 2 -40 16 0 14 12 19 55 25 31 3 55 12 55 18 0 7 6 3 13 -8
8 -14 13 -95 14 -269z m1445 254 c2 8 18 10 51 5 26 -4 45 -11 42 -15 -3 -5 4
-6 15 -3 16 4 20 0 20 -21 0 -27 -14 -35 -26 -14 -5 7 -11 3 -17 -13 l-9 -24
-15 23 c-25 37 -36 27 -30 -28 7 -60 -8 -68 -18 -9 -5 30 -13 43 -31 49 -28
11 -39 32 -30 56 6 15 8 15 25 0 13 -12 20 -13 23 -6z m-955 -182 c6 -7 11
-35 11 -62 0 -34 5 -52 16 -58 9 -5 16 -15 16 -23 0 -8 11 -22 25 -31 14 -9
25 -19 25 -23 -1 -18 -20 -33 -46 -35 -16 -2 -33 -4 -39 -6 -23 -6 -55 1 -69
16 -20 19 -21 78 -2 93 8 7 18 38 22 69 9 75 18 89 41 60z m203 -12 c0 -18
-17 -39 -36 -46 -19 -7 -23 -18 -26 -56 -3 -53 -22 -68 -38 -32 -9 18 -7 33
10 70 11 26 28 52 38 57 17 10 52 15 52 7z m214 -172 c23 -9 20 -18 -15 -33
-35 -15 -43 -11 -34 18 6 21 21 26 49 15z m-42 -74 c34 0 3 -27 -32 -28 -35
-1 -36 4 -13 38 15 21 18 22 21 8 2 -10 12 -18 24 -18z m99 -13 c0 -4 -3 -18
-6 -32 -3 -14 -7 -36 -10 -50 -8 -36 -25 -21 -25 21 0 40 16 77 31 72 6 -2 10
-7 10 -11z m-323 -108 c-2 -6 -8 -10 -13 -10 -5 0 -11 4 -13 10 -2 6 4 11 13
11 9 0 15 -5 13 -11z m1447 -449 c3 -5 1 -10 -4 -10 -6 0 -11 5 -11 10 0 6 2
10 4 10 3 0 8 -4 11 -10z m-306 -100 c10 -16 21 -27 24 -23 4 3 7 -1 7 -10 0
-9 -8 -17 -17 -17 -17 0 -63 -59 -63 -80 0 -14 37 -13 46 2 4 6 11 25 15 42 8
27 8 26 4 -9 -3 -30 -13 -48 -40 -72 -19 -18 -43 -33 -52 -33 -17 1 -17 1 -1
11 24 14 2 37 -29 31 -13 -2 -23 -1 -23 2 0 11 54 55 67 56 7 0 20 11 28 24
15 22 15 28 1 61 -19 46 -19 45 -1 45 8 0 23 -13 34 -30z m-1989 -57 c0 -21
-42 -113 -51 -113 -15 0 -17 86 -3 108 17 26 54 30 54 5z m1349 -76 c-1 -18
-4 -43 -8 -57 -9 -30 10 -74 47 -108 32 -31 19 -42 -41 -35 l-49 6 5 36 c2 20
12 65 21 100 10 35 16 72 13 82 -3 11 -1 17 4 13 5 -3 9 -20 8 -37z m88 -389
c-3 -7 -5 -2 -5 12 0 14 2 19 5 13 2 -7 2 -19 0 -25z"/>
<path d="M4845 4730 c-3 -5 -1 -10 4 -10 6 0 11 5 11 10 0 6 -2 10 -4 10 -3 0
-8 -4 -11 -10z"/>
<path d="M3554 3585 c-1 -45 8 -49 20 -9 3 11 0 28 -6 37 -11 15 -13 11 -14
-28z"/>
<path d="M3470 3565 c0 -3 7 -17 16 -30 10 -15 12 -25 5 -25 -13 0 -51 -31
-51 -42 0 -16 36 -7 64 16 24 20 26 26 17 44 -11 20 -51 49 -51 37z"/>
<path d="M3426 3411 c-5 -7 -3 -18 3 -24 14 -14 20 -6 11 17 -5 15 -9 16 -14
7z"/>
<path d="M4115 3610 c3 -5 11 -10 16 -10 6 0 7 5 4 10 -3 6 -11 10 -16 10 -6
0 -7 -4 -4 -10z"/>
<path d="M4302 5278 c6 -18 28 -21 28 -4 0 9 -7 16 -16 16 -9 0 -14 -5 -12
-12z"/>
<path d="M4448 5253 c3 -21 7 -40 11 -43 13 -10 41 -59 41 -72 0 -7 -12 -22
-27 -35 l-28 -22 41 -38 c23 -21 44 -46 47 -56 5 -12 11 -15 19 -10 7 4 20 8
28 8 8 0 16 9 19 20 2 11 14 33 27 49 19 22 23 35 19 60 -5 22 2 54 19 100 14
38 26 70 26 72 0 2 -55 4 -123 4 l-123 0 4 -37z m100 -89 c-16 -16 -38 -12
-38 6 0 8 41 19 49 13 3 -2 -2 -11 -11 -19z m72 -44 c0 -5 -4 -10 -10 -10 -5
0 -10 5 -10 10 0 6 5 10 10 10 6 0 10 -4 10 -10z m-70 -45 c0 -7 -6 -15 -13
-18 -10 -4 -13 2 -9 19 4 24 22 24 22 -1z"/>
<path d="M4018 5153 c7 -3 16 -2 19 1 4 3 -2 6 -13 5 -11 0 -14 -3 -6 -6z"/>
<path d="M3630 4711 c0 -15 6 -21 21 -21 14 0 19 5 17 17 -5 26 -38 29 -38 4z"/>
<path d="M3800 4635 c0 -18 5 -25 19 -25 17 0 18 3 8 25 -15 32 -27 32 -27 0z"/>
<path d="M3181 4444 c-22 -28 -28 -64 -10 -64 29 0 49 22 49 55 0 42 -11 44
-39 9z"/>
<path d="M3439 4315 c-3 -2 -21 -5 -42 -7 -44 -3 -35 -16 16 -25 36 -5 67 8
67 28 0 9 -33 13 -41 4z"/>
<path d="M0 3238 l1 -33 19 24 c25 30 25 41 0 41 -16 0 -20 -7 -20 -32z"/>
<path d="M80 3144 c-14 -7 -37 -17 -52 -23 -27 -10 -28 -13 -28 -83 l1 -73 49
53 c60 64 68 79 61 113 -6 23 -8 24 -31 13z"/>
<path d="M61 2829 c-24 -16 -48 -29 -53 -29 -4 0 -8 -71 -8 -157 l0 -158 20
33 c19 30 29 36 57 33 7 -1 17 8 23 19 9 18 8 20 -14 20 -28 0 -45 35 -26 54
8 8 16 5 29 -13 18 -24 19 -24 26 86 9 141 4 152 -54 112z"/>
<path d="M5555 2520 c21 -16 41 -30 46 -30 4 0 10 -8 13 -17 3 -10 24 -28 46
-41 l40 -23 0 71 0 70 -91 0 -92 0 38 -30z"/>
<path d="M0 2312 c0 -78 2 -91 15 -85 9 3 22 21 30 39 8 19 19 34 24 34 19 0
12 17 -9 23 -11 3 -20 14 -20 25 0 10 -9 27 -20 37 -20 18 -20 17 -20 -73z"/>
<path d="M5246 2352 c-3 -5 10 -23 28 -41 24 -23 44 -33 72 -35 22 -2 50 -6
64 -10 24 -7 24 -6 5 9 -11 9 -45 32 -75 51 -54 34 -84 42 -94 26z"/>
<path d="M3010 2281 c-58 -31 -116 -64 -130 -73 l-24 -18 29 0 30 0 -3 -77
c-1 -43 -3 -87 -5 -98 -2 -21 13 -23 81 -9 31 6 45 -7 22 -21 -16 -10 -12 -33
6 -37 20 -4 -69 -68 -95 -68 -17 0 -20 -11 -26 -91 -4 -49 -4 -93 -1 -97 4 -3
30 2 57 12 28 9 54 15 57 11 11 -11 -30 -35 -59 -35 -29 0 -55 -23 -44 -40 5
-8 11 -8 20 0 8 7 22 10 32 7 13 -3 4 -10 -29 -26 -48 -22 -48 -22 -48 -71 l0
-50 -53 0 c-60 0 -77 12 -77 51 0 24 -5 28 -32 31 -18 2 -46 -2 -61 -10 -33
-15 -31 -32 14 -103 31 -49 35 -69 19 -100 -10 -18 -5 -19 185 -19 l195 0 0
60 c0 52 -2 59 -17 54 -17 -5 -17 -5 0 9 15 13 17 39 17 280 0 234 -2 267 -16
275 -15 8 -15 10 0 15 13 5 16 21 16 77 l0 70 54 0 54 0 11 44 c17 68 14 85
-15 96 -39 15 -51 12 -164 -49z m40 -551 c0 -5 -8 -10 -17 -10 -15 0 -16 2 -3
10 19 12 20 12 20 0z"/>
<path d="M4678 2243 c7 -3 16 -2 19 1 4 3 -2 6 -13 5 -11 0 -14 -3 -6 -6z"/>
<path d="M790 2209 c0 -5 5 -7 10 -4 6 3 10 8 10 11 0 2 -4 4 -10 4 -5 0 -10
-5 -10 -11z"/>
<path d="M4668 2193 c6 -2 18 -2 25 0 6 3 1 5 -13 5 -14 0 -19 -2 -12 -5z"/>
<path d="M3473 2167 c-6 -13 -9 -35 -6 -49 3 -14 0 -29 -6 -32 -13 -8 -15 -46
-3 -46 4 0 23 -13 41 -28 27 -22 32 -33 27 -50 -5 -14 -15 -22 -31 -22 -18 0
-22 -4 -18 -20 4 -15 14 -20 39 -20 27 0 34 -4 34 -20 0 -14 -9 -21 -37 -26
-41 -8 -39 -10 45 -35 23 -7 42 -18 42 -26 0 -16 -1 -16 -35 -3 -20 8 -35 5
-66 -11 -43 -21 -69 -20 -69 4 0 17 -17 32 -47 41 -23 7 -23 6 -23 -71 l0 -79
58 -12 c31 -7 64 -12 72 -12 8 0 37 0 64 0 39 0 47 2 42 15 -4 10 1 15 15 15
15 0 19 -5 15 -16 -3 -9 -6 -25 -6 -36 0 -19 -4 -20 -130 -13 -124 7 -130 7
-130 -12 0 -13 8 -19 28 -21 49 -3 142 -26 142 -35 0 -4 -9 -5 -20 -2 -11 4
-20 2 -20 -4 0 -16 -66 -24 -100 -13 l-30 11 0 -218 0 -219 25 -6 c14 -4 30
-4 34 -2 4 3 29 40 54 83 61 102 64 107 114 183 23 36 62 106 87 156 26 51 53
97 61 104 14 12 49 82 75 150 7 19 25 49 40 65 33 37 53 67 110 164 39 65 52
78 87 90 47 17 73 5 73 -33 0 -15 9 -6 28 29 15 28 36 62 46 78 l18 27 -291 0
c-187 0 -291 -4 -291 -10 0 -5 -7 -10 -15 -10 -8 0 -15 5 -15 10 0 6 -26 10
-58 10 -52 0 -60 -3 -69 -23z"/>
<path d="M4243 2178 c-4 -7 -18 -33 -30 -58 -13 -25 -34 -60 -48 -79 -14 -19
-25 -46 -26 -60 0 -14 -8 -38 -17 -52 -54 -86 -82 -139 -82 -158 0 -12 -14
-58 -32 -103 -27 -67 -30 -85 -21 -108 10 -26 7 -32 -31 -69 -22 -22 -61 -61
-86 -86 -25 -25 -70 -66 -100 -89 -65 -51 -124 -119 -205 -234 -62 -90 -83
-106 -99 -78 -23 39 -42 55 -73 61 l-33 7 0 -172 c0 -149 2 -171 15 -166 38
15 47 15 18 0 -25 -13 -33 -24 -33 -45 l0 -27 64 23 c35 13 75 29 87 36 48 27
172 67 153 50 -5 -4 -66 -48 -136 -96 -70 -49 -126 -90 -124 -93 6 -5 40 13
106 56 30 20 71 46 91 59 38 25 64 30 53 10 -4 -7 -3 -9 2 -4 5 5 9 14 9 20 0
7 9 13 20 16 11 2 31 12 44 22 13 10 28 16 34 12 6 -4 3 -11 -8 -20 -33 -23
-3 -14 52 17 29 17 55 30 59 30 3 0 -5 -17 -17 -37 -54 -90 -93 -144 -163
-226 -42 -48 -76 -91 -76 -96 0 -5 -15 -19 -34 -32 -18 -12 -38 -30 -44 -40
-9 -14 -7 -17 16 -17 72 -3 111 0 110 7 -2 25 4 30 26 21 20 -7 27 -5 40 15
21 32 10 58 -21 52 -19 -4 -23 -1 -17 12 3 9 9 26 12 39 2 13 19 34 36 47 18
14 46 54 66 94 40 84 51 87 17 5 -14 -33 -27 -75 -30 -94 -7 -50 -17 -89 -34
-138 -9 -23 -13 -45 -10 -48 10 -11 39 58 83 200 24 78 48 149 54 158 5 10 10
30 10 45 0 16 7 41 15 57 20 38 19 53 -5 66 -23 12 -82 0 -142 -31 -89 -45 2
36 116 104 101 60 117 56 89 -19 -3 -7 12 -14 39 -17 35 -4 47 -1 64 17 23 26
42 15 39 -21 -1 -12 2 -20 7 -17 4 3 8 10 8 15 0 5 8 18 18 27 9 9 16 15 14
13 -1 -3 7 -14 18 -26 20 -21 35 -95 19 -95 -5 0 -9 -4 -9 -10 0 -5 7 -10 15
-10 12 0 15 -10 13 -40 -1 -22 -6 -40 -10 -40 -4 0 -8 -6 -8 -13 0 -7 -9 -29
-19 -50 -10 -20 -22 -48 -25 -62 -4 -14 -10 -25 -14 -25 -4 0 -7 -12 -6 -27 1
-16 -3 -34 -8 -40 -7 -9 -5 -26 6 -53 9 -22 16 -51 16 -65 0 -27 76 -92 119
-101 14 -3 31 -7 36 -8 6 -2 -11 -12 -37 -24 -68 -30 -110 -21 -173 37 -27 25
-63 66 -79 91 -31 48 -94 201 -106 260 -7 31 -8 32 -9 8 0 -15 -12 -47 -25
-70 -13 -24 -35 -80 -50 -126 -24 -75 -36 -106 -98 -241 -23 -51 -75 -124
-133 -184 l-40 -42 79 -3 c95 -3 106 0 106 33 0 14 7 42 16 63 8 20 20 60 26
87 5 28 14 66 18 85 5 19 15 64 23 100 13 58 47 169 64 210 3 8 7 18 7 22 1 3
4 10 9 14 4 4 8 -76 9 -177 1 -150 5 -366 7 -426 1 -10 32 -13 122 -13 111 0
121 1 114 17 -16 38 -15 56 1 20 l16 -37 160 0 161 0 -7 38 c-3 20 -9 84 -12
142 l-6 105 24 -29 c29 -35 109 -58 151 -44 27 10 67 56 67 78 0 8 9 10 23 7
25 -7 48 8 66 41 6 12 18 22 25 22 7 0 24 16 37 35 27 39 31 41 49 20 17 -20
64 -19 81 1 12 15 11 16 -6 11 -24 -8 -115 46 -115 67 0 8 21 18 58 25 31 6
63 15 70 19 7 5 16 38 20 75 5 37 11 70 15 73 19 19 59 -11 103 -77 27 -39 59
-78 71 -86 13 -9 23 -25 23 -39 0 -12 5 -26 10 -29 18 -11 11 -41 -25 -113
-26 -51 -34 -78 -29 -96 6 -26 1 -30 -38 -27 -9 1 -22 -8 -29 -21 -7 -13 -16
-26 -21 -29 -6 -4 8 -35 29 -71 22 -35 42 -72 46 -81 6 -15 31 -17 272 -17
l265 0 0 267 0 266 -24 -22 c-31 -30 -59 -24 -111 24 l-40 36 40 -4 c31 -3 45
1 63 17 l24 21 24 -30 24 -30 0 206 0 206 -42 -4 c-68 -7 -72 -6 -129 24 -44
23 -58 38 -77 78 -20 41 -22 53 -12 69 10 16 9 22 -6 33 -25 18 -54 16 -55 -4
-4 -50 4 -111 18 -132 11 -17 12 -29 5 -45 -6 -11 -12 -27 -14 -35 -7 -26 -44
22 -51 65 -10 55 -20 68 -50 60 -14 -3 -32 -12 -39 -20 -14 -14 -50 -6 -63 13
-3 6 -11 11 -17 11 -6 0 -4 -8 6 -19 12 -14 14 -24 7 -42 -5 -13 -10 -20 -10
-15 -1 5 -7 4 -13 -2 -17 -13 -60 -18 -75 -9 -7 5 -13 4 -13 -1 0 -16 -82 -54
-93 -43 -13 13 -64 -6 -71 -26 -8 -21 -3 -25 34 -29 39 -5 67 -20 79 -42 9
-16 4 -17 -57 -14 -78 4 -142 19 -142 32 0 6 -11 10 -24 10 -13 0 -28 6 -34
13 -9 11 0 13 49 12 51 0 62 3 74 21 12 19 12 23 -1 28 -9 3 -19 4 -23 1 -4
-2 -8 2 -8 9 0 14 21 16 33 3 4 -4 17 -7 28 -7 17 0 13 5 -16 25 -21 14 -41
24 -45 23 -14 -3 -77 14 -116 32 -20 10 -34 13 -30 8 4 -8 -5 -9 -27 -5 -18 4
-36 7 -41 7 -7 0 -14 15 -21 45 -1 6 -9 18 -17 27 -12 14 -18 15 -30 5 -12 -9
-13 -9 -7 0 5 9 1 13 -11 13 -15 0 -16 2 -3 11 12 8 9 10 -13 6 -22 -3 -25 -2
-16 10 7 7 9 16 5 20 -3 3 -6 1 -6 -5 0 -7 -7 -12 -16 -12 -8 0 -13 4 -10 9 4
5 0 12 -6 14 -9 4 -8 6 2 6 8 1 2 8 -14 16 -16 9 -38 13 -49 9 -12 -4 -17 -2
-13 4 3 6 1 14 -5 18 -8 5 -9 3 -4 -6 6 -10 3 -12 -11 -7 -18 7 -18 7 0 -8 11
-8 23 -15 28 -15 4 0 8 -4 8 -9 0 -5 -17 -8 -37 -7 -21 2 -49 -1 -63 -6 -20
-8 -23 -7 -12 3 17 18 15 32 -4 25 -8 -3 -13 -2 -10 3 3 5 -2 12 -12 17 -22
10 -51 13 -50 5 2 -19 -4 -24 -12 -11 -9 13 -10 13 -10 0 0 -9 5 -21 12 -28 9
-9 9 -12 0 -12 -6 0 -9 -7 -6 -15 4 -8 10 -13 14 -10 5 3 24 -10 43 -29 l35
-34 31 19 c45 27 88 24 141 -11 25 -16 39 -30 32 -30 -9 0 -11 -7 -6 -22 6
-20 2 -18 -27 10 -57 57 -97 63 -134 22 -10 -11 -27 -20 -37 -20 -13 0 -24
-11 -31 -30 -6 -16 -16 -30 -22 -30 -16 1 -47 50 -41 66 3 7 1 14 -4 14 -16 0
-37 56 -29 78 11 28 -5 29 -24 1 -14 -19 -17 -20 -44 -6 -16 9 -35 27 -41 42
-14 29 -10 28 43 -11 l31 -23 13 30 c10 22 10 33 1 43 -12 16 3 32 19 21 14
-8 33 32 26 54 -3 12 0 21 10 25 9 3 15 11 13 18 -5 21 24 99 53 145 24 39
114 123 131 123 5 0 8 7 8 16 0 14 -3 14 -15 4 -13 -10 -15 -9 -15 12 0 33
107 128 121 107 15 -25 10 -48 -16 -65 -37 -24 -33 -45 8 -38 17 3 43 10 57
15 54 19 257 12 301 -11 23 -13 29 -3 29 49 0 32 -11 68 -39 126 -22 44 -44
106 -50 139 -15 82 -52 136 -117 170 -34 18 -60 25 -73 21 -15 -5 -21 -2 -21
9 0 14 -23 16 -174 16 -129 0 -177 -3 -183 -12z m37 -118 c0 -17 -9 -50 -20
-72 -11 -23 -20 -48 -20 -55 0 -7 -4 -13 -10 -13 -13 0 -50 32 -50 43 0 5 16
36 36 68 39 66 64 76 64 29z m265 -42 c-8 -37 -43 -116 -62 -138 -7 -8 -25
-30 -39 -47 -14 -18 -33 -33 -42 -33 -55 1 -51 58 7 91 20 11 45 33 56 49 39
56 80 109 83 110 2 0 1 -15 -3 -32z m-95 16 c0 -13 -103 -124 -115 -124 -27 0
-36 26 -20 56 18 35 135 93 135 68z m-305 -210 c-40 -37 -55 -30 -24 11 4 6
17 11 29 12 21 2 20 1 -5 -23z m-149 -380 c-5 -13 -10 -14 -18 -6 -6 6 -8 18
-4 28 5 13 10 14 18 6 6 -6 8 -18 4 -28z m19 -142 c-9 -9 -35 8 -35 24 0 16 2
16 20 -1 11 -10 18 -20 15 -23z m365 -265 c0 -1 -14 -15 -31 -32 l-32 -29 17
32 c9 18 23 32 31 32 8 0 15 -1 15 -3z m324 -68 c-3 -5 1 -12 10 -15 8 -3 12
-12 9 -20 -3 -9 0 -12 9 -9 10 4 14 -4 15 -30 1 -19 -3 -33 -7 -30 -17 11 -5
-70 13 -85 22 -18 36 -77 37 -147 0 -50 -1 -53 -25 -51 -28 3 -108 62 -97 72
3 4 -1 4 -11 1 -12 -5 -20 1 -28 19 -20 43 -58 30 -50 -17 1 -4 -6 -10 -15
-14 -13 -5 -13 -7 -2 -14 10 -7 9 -9 -4 -9 -10 0 -18 -5 -18 -11 0 -6 -6 -9
-14 -6 -8 3 -17 3 -20 -1 -14 -13 -35 -9 -52 9 -9 10 -20 16 -24 14 -4 -3 -14
2 -21 11 -9 11 -10 17 -2 22 6 4 15 20 18 35 4 15 11 27 16 27 5 0 15 12 22
28 14 32 37 58 37 43 0 -26 18 -8 24 24 4 19 11 35 16 35 5 0 7 7 3 16 -5 13
-11 11 -34 -14 -16 -17 -29 -35 -29 -40 0 -5 -7 -15 -15 -22 -9 -7 -15 -18
-13 -24 2 -6 -14 -29 -36 -51 -21 -22 -36 -34 -31 -27 5 9 1 12 -11 10 -14 -2
-19 3 -18 17 1 24 59 123 87 148 15 14 17 20 7 31 -6 8 -18 12 -26 9 -18 -7
-18 8 -1 32 10 12 16 15 21 6 5 -8 17 -3 41 14 20 16 35 21 37 15 5 -17 58 9
58 29 0 14 2 14 10 1 8 -13 13 -13 31 -2 11 8 19 10 16 5 -3 -5 4 -9 16 -10
12 0 17 1 10 4 -7 2 -9 11 -7 18 4 11 12 8 30 -12 13 -14 21 -29 18 -34z
m-393 -69 c5 0 12 7 15 15 4 8 10 15 15 15 11 0 49 -78 49 -102 0 -30 -35 -21
-69 17 -26 30 -31 43 -29 83 1 43 2 44 5 10 2 -21 9 -38 14 -38z m529 60 c0
-5 -2 -10 -4 -10 -3 0 -8 5 -11 10 -3 6 -1 10 4 10 6 0 11 -4 11 -10z m438
-38 c2 -16 -13 -39 -52 -80 -31 -33 -56 -64 -56 -70 0 -7 -7 -12 -15 -12 -8 0
-15 5 -15 10 0 6 4 10 10 10 5 0 13 12 16 28 4 15 17 41 30 57 12 17 27 43 33
58 13 34 44 33 49 -1z m332 -95 c0 -16 -38 -53 -45 -45 -3 3 0 17 6 32 13 27
39 36 39 13z m-280 -226 c0 -5 -13 -19 -30 -31 -35 -25 -39 -16 -8 17 22 24
38 30 38 14z m175 -14 c16 -12 12 -15 -35 -20 -61 -7 -81 0 -55 20 24 17 66
17 90 0z m-725 -125 c0 -15 -6 -18 -30 -14 -31 4 -39 17 -17 25 27 11 47 7 47
-11z"/>
<path d="M4533 796 c0 -8 6 -12 14 -9 7 3 10 9 7 14 -8 14 -21 11 -21 -5z"/>
<path d="M4345 850 c3 -5 8 -10 11 -10 2 0 4 5 4 10 0 6 -5 10 -11 10 -5 0 -7
-4 -4 -10z"/>
<path d="M3360 2124 c0 -50 2 -55 15 -44 10 9 12 17 6 23 -5 5 -7 25 -4 43 4
22 2 34 -6 34 -7 0 -11 -21 -11 -56z"/>
<path d="M1850 2146 c0 -8 5 -18 10 -21 6 -3 10 3 10 14 0 12 -4 21 -10 21 -5
0 -10 -6 -10 -14z"/>
<path d="M2920 1940 c0 -32 26 -43 36 -15 4 8 12 15 20 15 8 0 11 6 8 15 -4 9
-19 15 -35 15 -26 0 -29 -4 -29 -30z"/>
<path d="M5581 1756 c-12 -14 -5 -26 16 -26 15 0 18 26 4 34 -5 3 -14 0 -20
-8z"/>
<path d="M5673 1745 c-13 -5 -23 -13 -23 -17 0 -5 -8 -8 -18 -8 -15 0 -17 -6
-14 -35 4 -32 1 -36 -32 -50 -20 -9 -42 -28 -51 -45 -8 -16 -27 -37 -40 -46
-14 -9 -25 -26 -25 -38 0 -29 -91 -126 -118 -126 -12 0 -22 4 -22 8 0 9 -43
32 -59 32 -4 0 -16 -16 -27 -35 -16 -30 -17 -37 -5 -44 16 -10 42 -3 54 13 5
8 10 6 16 -4 12 -17 -6 -43 -25 -36 -7 3 -18 -2 -24 -9 -9 -11 -8 -21 4 -45 8
-17 18 -51 22 -75 3 -25 11 -45 18 -45 15 0 56 65 56 90 0 26 113 138 147 146
25 7 113 0 148 -10 43 -13 46 0 43 200 l-3 189 -22 -10z"/>
<path d="M2026 1725 c4 -8 12 -15 20 -15 8 0 14 7 14 15 0 8 -9 15 -20 15 -13
0 -18 -5 -14 -15z"/>
<path d="M2067 1709 c-4 -15 -2 -19 10 -15 8 3 17 6 19 6 10 0 3 18 -10 23 -8
3 -16 -2 -19 -14z"/>
<path d="M5683 1333 c-7 -2 -13 -11 -13 -18 0 -7 -9 -32 -20 -56 -27 -60 -25
-66 15 -71 l35 -4 0 78 c0 43 -1 78 -2 77 -2 0 -9 -3 -15 -6z"/>
<path d="M4670 1070 c0 -6 7 -10 15 -10 8 0 15 2 15 4 0 2 -7 6 -15 10 -8 3
-15 1 -15 -4z"/>
<path d="M3634 658 c-95 -102 -99 -107 -75 -101 11 3 21 9 21 14 0 5 15 22 33
38 28 26 74 91 65 91 -2 0 -22 -19 -44 -42z"/>
<path d="M3857 398 c-8 -24 -18 -63 -21 -88 -4 -24 -11 -49 -15 -55 -5 -5 -11
-37 -15 -70 -3 -33 -8 -72 -10 -86 -3 -22 -1 -26 15 -22 11 3 19 0 19 -6 0 -7
-4 -10 -9 -7 -14 9 -32 -20 -24 -39 5 -14 3 -16 -8 -10 -11 6 -11 5 -3 -4 19
-20 49 -9 51 19 1 14 7 54 12 90 6 36 11 97 11 137 0 40 5 95 11 123 14 65 7
74 -14 18z"/>
<path d="M3547 333 c-13 -3 -16 -10 -11 -25 5 -17 3 -20 -10 -15 -10 4 -16 1
-16 -8 0 -8 -9 -24 -20 -35 -11 -11 -20 -25 -20 -32 0 -6 -3 -8 -7 -5 -8 9
-43 -43 -43 -65 0 -9 -6 -19 -12 -21 -7 -3 -3 -6 9 -6 26 -1 42 -21 17 -21
-11 0 -14 -4 -7 -12 6 -9 0 -22 -20 -43 -19 -20 -27 -24 -23 -12 3 10 2 16 -3
12 -5 -3 -12 1 -14 7 -3 7 -6 -2 -6 -20 -1 -32 -1 -32 44 -30 31 1 44 5 41 13
-6 16 11 41 21 31 4 -5 3 -11 -4 -13 -7 -2 -9 -11 -6 -19 5 -13 83 -18 83 -5
0 11 -41 32 -50 26 -18 -11 -15 52 3 74 16 19 16 60 1 54 -7 -3 -10 -11 -7
-19 3 -8 1 -14 -5 -14 -12 0 -24 29 -16 41 3 5 9 7 14 4 10 -6 20 7 25 37 3
11 16 38 30 59 14 21 25 43 25 49 0 6 5 8 10 5 6 -3 10 -1 10 4 0 11 -3 12
-33 4z"/>
<path d="M3615 320 c4 -6 11 -8 16 -5 14 9 11 15 -7 15 -8 0 -12 -5 -9 -10z"/>
<path d="M3600 285 c0 -8 5 -15 10 -15 6 0 10 7 10 15 0 8 -4 15 -10 15 -5 0
-10 -7 -10 -15z"/>
<path d="M3554 185 c-3 -14 -10 -25 -14 -25 -4 0 -10 -9 -13 -20 -3 -11 -1
-20 4 -20 5 0 9 5 9 10 0 5 5 9 11 7 6 -1 12 15 13 36 3 43 -1 48 -10 12z"/>
<path d="M5038 143 c7 -3 16 -2 19 1 4 3 -2 6 -13 5 -11 0 -14 -3 -6 -6z"/>
</g>
</svg>
